<svg width="897" height="945" viewBox="0 0 897 945" fill="none" xmlns="http://www.w3.org/2000/svg">
<path d="M252.5 284.531H252.75H354.25C354.5 284.448 354.583 284.531 354.5 284.781V596.281V596.531H354.75H564.25C564.5 596.448 564.583 596.531 564.5 596.781V649.281V649.531H564.25H252.75H252.5V649.281V284.781V284.531Z" fill="#C76B6B" stroke="black"/>
<path d="M389.5 428.531H389.75H494.25H494.5V428.781V449.281V449.531H494.75H515.25C515.5 449.448 515.583 449.531 515.5 449.781V552.281V552.531H515.25H495.75H495.5V552.781V573.281C495.583 573.531 495.5 573.615 495.25 573.531H391.75H391.5V573.281V554.781V554.531H391.25H370.75C370.5 554.615 370.417 554.531 370.5 554.281V449.781V449.531H370.75H389.25H389.5V449.281V428.781V428.531ZM411.5 449.531V450.031V552.531H412H473.5V450.031V449.531H412H411.5Z" fill="#C76B6B" stroke="black"/>
<path d="M572.5 428.531H572.75H655.25H655.5V428.781V448.281V448.531H655.75H676.25H676.5V448.781V469.281V469.531H676.25H635.75H635.5V469.281V449.781C635.583 449.531 635.5 449.448 635.25 449.531H593.75H593.5V449.781V469.281V469.531H593.25H572.75C572.5 469.448 572.417 469.531 572.5 469.781V531.281V531.531H572.75H592.25H592.5V531.781V552.281V552.531H592.75H634.25H634.5V552.281V531.781V531.531H634.75H676.25H676.5V531.781V552.281V552.531H676.25H656.75H656.5V552.781V573.281V573.531H656.25H572.75H572.5V573.281V554.781V554.531H572.25H552.75H552.5V554.281V531.781V531.531H552.25H531.75H531.5V531.281V469.781V469.531H531.75H550.25H550.5V469.281V449.781V449.531H550.75H572.25H572.5V449.281V428.781V428.531Z" fill="#C76B6B" stroke="black"/>
<path d="M402.5 0.5H402.75H494.25H494.5V0.75V35.25V35.5H495.5V36.5H495.75H552.25H552.5V36.75V67.25V67.5H553.5V68.5H553.75H612.25C612.5 68.4167 612.583 68.5 612.5 68.75V98.25V98.5H613.5V98.75V101.25V101.5H613.75H616.25H616.5V102.5H616.75H672.25H672.5V102.75V145.25V145.5H673.5V146.5H673.75H728.25H728.5V146.75V183.25V183.5H729.5V184.5H729.75H784.25H784.5V184.75V219.25V219.5H785.5V220.5H785.75H818.25H818.5V220.75V251.25V251.5H819.5V252.5H819.75H896.25H896.5V252.75V684.25V684.5H896.25H819.75H819.5V685.5H818.5V685.75V726.25V726.5H818.25H763.75H763.5V727.5H762.5V727.75V768.25V768.5H762.25H703.75H703.5V769.5H702.5V769.75V808.25V808.5H702.25H645.75H645.5V809.5H644.5V809.75V836.25V836.5H644.25H591.75H591.5V837.5H590.5V837.75V864.25V864.5H590.25H545.75H545.5V865.5H544.5V865.75V908.25V908.5H544.25H499.75H499.5V909.5H498.5V909.75V944.25V944.5H498.25H406.75H406.5V943.5H405.5V942.5H404.5V942.25V903.75V903.5H403.5V902.5H403.25H346.75H346.5V901.5H345.5V900.5H344.5V900.25V875.75V875.5H343.5V874.5H343.25H286.75C286.5 874.583 286.417 874.5 286.5 874.25V847.75V847.5H285.5V846.5H285.25H230.75H230.5V846.25V813.75V813.5H229.5V812.5H229.25H174.75H174.5V812.25V757.75V757.5H173.5V756.5H173.25H122.75H122.5V756.25V725.75V725.5H121.5V724.5H121.25H74.75H74.5V724.25V686.75V686.5H73.5V685.5H71.5V684.5H71.25H0.75H0.5V684.25V252.75V252.5H0.75H73.25H73.5V251.5H74.5V251.25V218.75V218.5H75.5V217.5H76.5V216.5H76.75H131.25H131.5V215.5H132.5V215.25V184.75V184.5H132.75H186.25H186.5V183.5H186.75H189.25H189.5V183.25V180.75V180.5H190.5V180.25V154.75V154.5H191.5V153.5H192.5V152.5H192.75H244.25H244.5V151.5H244.75H247.25H247.5V151.25V148.75V148.5H248.5V148.25V118.75V118.5H248.75H305.25H305.5V117.5H306.5V117.25V78.75V78.5H306.75H363.25H363.5V77.5H364.5V77.25V44.75V44.5H364.75H401.25H401.5V43.5H402.5V43.25V0.75V0.5ZM423.5 82.5V83.5H422.5V84V126.5H366H365.5V127.5H364.5V128V158.5H308H307.5V159.5H306.5V160V200.5H250H249.5V201.5H248.5V202V232.5H195H194.5V233.5H192H191.5V234V236.5H190.5V237V264.5H134H133.5V265.5H132.5V266V296.5H82H81.5V297.5H80.5V298V643.5H81.5V644.5H82H132.5V645V675.5H133.5V676.5H134H180.5V677V731.5H181.5V732.5H182H230.5V733.5H231.5V734.5H232.5V735V765.5H233.5V766.5H234H286.5V767.5H287.5V768.5H288.5V769V793.5H289.5V794.5H290H335.5V793.5H336H339.5V794.5H340H342.5C342.5 794.5 342.5 794.667 342.5 795V821.5H343.5V822.5H344H402.5V823V863.5H403.5V864.5H404H485.5V863.5H486.5V829V828.5H487H531.5V827.5H532.5V785V784.5H533H585.5V783.5H586.5V757C586.5 756.667 586.667 756.5 587 756.5H643.5V755.5H644.5V729C644.5 728.667 644.667 728.5 645 728.5H703.5V727.5H704.5V691V690.5H705.5V689.5H706.5V688.5H707H759.5V687.5H760.5V647V646.5H761H815.5V645.5H816.5V302V301.5H815.5V300.5H761H760.5V268V267.5H759.5V266.5H727H726.5V231V230.5H725.5V228V227.5H723H722.5V226.5H671H670.5V187V186.5H669.5V184V183.5H667H666.5V182.5H615H614.5V152V151.5H613.5V150.5H555H554.5V120V119.5H553.5V118.5H497H496.5V84V83.5H495.5V82.5H424H423.5Z" fill="#C76B6B" stroke="black"/>
</svg>
